<svg xmlns="http://www.w3.org/2000/svg" viewBox="0 0 33.904 50.938">
  <defs>
    <style>
      .cls-1 {
        fill: #02216b;
      }
    </style>
  </defs>
  <g id="location" transform="translate(-79.968 0)">
    <path id="Path_27" data-name="Path 27" class="cls-1" d="M111.517,8.722A16.656,16.656,0,0,0,97.3,0C97.047,0,96.793,0,96.54,0A16.656,16.656,0,0,0,82.322,8.722,18.244,18.244,0,0,0,82.1,26.244l12.227,23.12.017.031a2.925,2.925,0,0,0,5.156,0l.017-.031,12.227-23.12a18.245,18.245,0,0,0-.224-17.522ZM96.92,23.081a7.059,7.059,0,0,1-6.934-7.163,6.937,6.937,0,1,1,13.867,0A7.059,7.059,0,0,1,96.92,23.081Z" transform="translate(0 0)"/>
  </g>
</svg>
