<svg xmlns="http://www.w3.org/2000/svg" viewBox="0 0 47.311 33">
  <defs>
    <style>
      .cls-1 {
        fill: #02216b;
      }
    </style>
  </defs>
  <g id="mail" transform="translate(0 -80)">
    <g id="Group_26" data-name="Group 26" transform="translate(31.361 86.084)">
      <g id="Group_25" data-name="Group 25" transform="translate(0 0)">
        <path id="Path_23" data-name="Path 23" class="cls-1" d="M339.392,155.558l15.95,10.23V144.9Z" transform="translate(-339.392 -144.896)"/>
      </g>
    </g>
    <g id="Group_28" data-name="Group 28" transform="translate(0 86.084)">
      <g id="Group_27" data-name="Group 27" transform="translate(0 0)">
        <path id="Path_24" data-name="Path 24" class="cls-1" d="M0,144.9v20.892l15.95-10.23Z" transform="translate(0 -144.896)"/>
      </g>
    </g>
    <g id="Group_30" data-name="Group 30" transform="translate(0.089 80)">
      <g id="Group_29" data-name="Group 29" transform="translate(0 0)">
        <path id="Path_25" data-name="Path 25" class="cls-1" d="M45.225,80H3.828A2.935,2.935,0,0,0,.96,82.553L24.527,98.306,48.093,82.553A2.935,2.935,0,0,0,45.225,80Z" transform="translate(-0.96 -80)"/>
      </g>
    </g>
    <g id="Group_32" data-name="Group 32" transform="translate(0.095 98.555)">
      <g id="Group_31" data-name="Group 31">
        <path id="Path_26" data-name="Path 26" class="cls-1" d="M29.582,277.923l-4.184,2.8a1.467,1.467,0,0,1-1.626,0l-4.184-2.8L1.024,289.833a2.93,2.93,0,0,0,2.862,2.532h41.4a2.93,2.93,0,0,0,2.862-2.532Z" transform="translate(-1.024 -277.92)"/>
      </g>
    </g>
  </g>
</svg>
