<svg xmlns="http://www.w3.org/2000/svg" viewBox="0 0 39 35.1">
  <defs>
    <style>
      .cls-1 {
        fill: #fff;
      }
    </style>
  </defs>
  <g id="menu" transform="translate(0 -30.599)">
    <g id="_x33__6_" transform="translate(0 30.599)">
      <g id="Group_46" data-name="Group 46">
        <path id="Path_151" data-name="Path 151" class="cls-1" d="M37.05,61.8H1.95a1.95,1.95,0,0,0,0,3.9h35.1a1.95,1.95,0,0,0,0-3.9ZM1.95,34.5h35.1a1.95,1.95,0,1,0,0-3.9H1.95a1.95,1.95,0,1,0,0,3.9Zm35.1,11.7H1.95a1.95,1.95,0,0,0,0,3.9h35.1a1.95,1.95,0,0,0,0-3.9Z" transform="translate(0 -30.599)"/>
      </g>
    </g>
  </g>
</svg>
