<svg xmlns="http://www.w3.org/2000/svg" viewBox="0 0 47.346 45.754">
  <defs>
    <style>
      .cls-1 {
        fill: #02216b;
      }
    </style>
  </defs>
  <g id="phone" transform="translate(-0.539)">
    <g id="Group_33" data-name="Group 33" transform="translate(0.539 0)">
      <path id="Path_28" data-name="Path 28" class="cls-1" d="M46.644,33.579l-6.621-6.385a4.474,4.474,0,0,0-7.331,1.6,4.538,4.538,0,0,1-5.2,2.736c-4.729-1.14-11.114-7.069-12.3-11.858a4.11,4.11,0,0,1,2.838-5.017,4.185,4.185,0,0,0,1.655-7.069L13.065,1.2a4.852,4.852,0,0,0-6.385,0L2.187,5.53c-4.493,4.561.473,16.647,11.587,27.365S37.422,48.629,42.151,44.068l4.493-4.333A4.435,4.435,0,0,0,46.644,33.579Z" transform="translate(-0.539 0)"/>
    </g>
  </g>
</svg>
